<svg width="224" height="80" viewBox="0 0 224 80" fill="none" xmlns="http://www.w3.org/2000/svg">
<path d="M38.4539 8.16963C38.4539 6.81659 37.3554 5.71973 36.0003 5.71973H24.5498C23.1947 5.71973 22.0961 6.81659 22.0961 8.16963V19.3052C22.0961 19.9549 21.8376 20.5781 21.3774 21.0375L21.0796 21.3349C20.6195 21.7943 19.9954 22.0524 19.3446 22.0524H8.19196C6.83683 22.0524 5.73828 23.1493 5.73828 24.5023L5.73828 55.5345C5.73828 56.8875 6.83683 57.9844 8.19195 57.9844H19.3446C19.9954 57.9844 20.6195 58.2425 21.0796 58.7019L21.3774 58.9993C21.8376 59.4587 22.0961 60.0819 22.0961 60.7316L22.0961 71.8672C22.0961 73.2202 23.1947 74.3171 24.5498 74.3171H55.6297C56.9848 74.3171 58.0833 73.2202 58.0833 71.8672V60.7314C58.0833 60.0816 58.3418 59.4585 58.802 58.9991L59.0996 58.7019C59.5597 58.2425 60.1838 57.9844 60.8346 57.9844H71.9875C73.3426 57.9844 74.4412 56.8875 74.4412 55.5345V44.1016C74.4412 42.7485 73.3426 41.6517 71.9875 41.6517H60.537C59.1819 41.6517 58.0833 42.7485 58.0833 44.1016V55.2371C58.0833 55.8869 57.8248 56.51 57.3647 56.9695L57.0669 57.2668C56.6067 57.7263 55.9826 57.9844 55.3319 57.9844H24.8473C24.1966 57.9844 23.5725 57.7263 23.1123 57.2668L22.8148 56.9697C22.3546 56.5103 22.0961 55.8871 22.0961 55.2374L22.0961 24.7994C22.0961 24.1497 22.3546 23.5265 22.8148 23.0671L23.1123 22.77C23.5725 22.3105 24.1966 22.0524 24.8473 22.0524H36.0003C37.3554 22.0524 38.4539 20.9556 38.4539 19.6025V8.16963Z" fill="url(#paint0_linear_4237_34631)"/>
<path d="M71.9884 5.71973C73.3435 5.71973 74.4421 6.81659 74.4421 8.16963V29.4021C74.4421 30.7552 73.3435 31.8521 71.9884 31.8521H51.0209C50.3702 31.8521 49.7461 32.1102 49.2859 32.5696L48.9882 32.8668C48.5281 33.3263 48.2696 33.9494 48.2696 34.5992V45.7349C48.2696 47.0879 47.171 48.1848 45.8159 48.1848H34.3654C33.0103 48.1848 31.9117 47.0879 31.9117 45.7349V34.302C31.9117 32.9489 33.0103 31.8521 34.3654 31.8521H45.5182C46.169 31.8521 46.7931 31.5939 47.2532 31.1345L47.5509 30.8373C48.011 30.3778 48.2696 29.7547 48.2696 29.1049V8.16963C48.2696 6.81659 49.3681 5.71973 50.7232 5.71973H71.9884Z" fill="url(#paint1_linear_4237_34631)"/>
<path d="M185.395 43.5622V42.5615C185.395 39.3093 186.045 36.5365 187.347 34.2433C188.649 31.9083 190.371 30.1363 192.512 28.9271C194.696 27.6762 197.068 27.0508 199.63 27.0508C202.485 27.0508 204.648 27.5511 206.117 28.5518C207.434 29.4481 208.43 30.3777 209.106 31.3409C209.251 31.5472 209.483 31.679 209.735 31.679C210.138 31.679 210.464 31.3529 210.464 30.9507V27.9264H218.274V64.4517C218.274 66.5782 217.644 68.2668 216.384 69.5177C215.125 70.8103 213.445 71.4565 211.345 71.4565H192.034V64.5768H208.574C209.75 64.5768 210.338 63.9513 210.338 62.7005V55.3628C210.338 54.9594 210.011 54.6324 209.607 54.6324C209.356 54.6324 209.125 54.7626 208.98 54.9677C208.583 55.5294 208.07 56.1056 207.44 56.6963C206.684 57.3634 205.677 57.9263 204.417 58.385C203.157 58.8436 201.561 59.073 199.63 59.073C197.068 59.073 194.696 58.4684 192.512 57.2592C190.371 56.0083 188.649 54.2363 187.347 51.943C186.045 49.6081 185.395 46.8145 185.395 43.5622ZM201.897 52.1932C204.333 52.1932 206.369 51.4218 208.007 49.8791C209.645 48.3364 210.464 46.1682 210.464 43.3746V42.7492C210.464 39.9139 209.645 37.7457 208.007 36.2447C206.411 34.7019 204.375 33.9305 201.897 33.9305C199.462 33.9305 197.425 34.7019 195.788 36.2447C194.15 37.7457 193.331 39.9139 193.331 42.7492V43.3746C193.331 46.1682 194.15 48.3364 195.788 49.8791C197.425 51.4218 199.462 52.1932 201.897 52.1932Z" fill="#0D1126"/>
<path d="M149.535 58.9476V27.9261H157.346V31.2992C157.346 31.6815 157.656 31.9914 158.038 31.9914C158.307 31.9914 158.549 31.8333 158.682 31.5995C159.219 30.6603 160.096 29.7694 161.314 28.9268C162.7 27.9261 164.799 27.4258 167.613 27.4258C170.048 27.4258 172.169 27.9887 173.974 29.1144C175.822 30.1985 177.25 31.7204 178.258 33.6801C179.265 35.5981 179.769 37.8497 179.769 40.4348V58.9476H171.833V41.0602C171.833 38.7253 171.245 36.9741 170.069 35.8066C168.935 34.6391 167.298 34.0554 165.156 34.0554C162.721 34.0554 160.831 34.8684 159.487 36.4946C158.143 38.079 157.472 40.3097 157.472 43.1867V58.9476H149.535Z" fill="#0D1126"/>
<path fill-rule="evenodd" clip-rule="evenodd" d="M135.333 15.1982C134.67 15.1982 134.133 15.7355 134.133 16.3982V21.9982C134.133 22.661 134.67 23.1982 135.333 23.1982H140.933C141.596 23.1982 142.133 22.661 142.133 21.9982V16.3982C142.133 15.7355 141.596 15.1982 140.933 15.1982H135.333ZM134.242 27.9238V58.9453H142.179V27.9238H134.242Z" fill="#0D1126"/>
<path d="M97.3359 58.9473V15.167H115.476C118.248 15.167 120.683 15.7299 122.783 16.8557C124.925 17.9397 126.583 19.4825 127.759 21.4839C128.977 23.4852 129.586 25.8619 129.586 28.6138V29.4894C129.586 32.1996 128.956 34.5762 127.696 36.6193C126.478 38.6207 124.799 40.1843 122.657 41.3101C120.557 42.3942 118.164 42.9362 115.476 42.9362H105.65V58.9473H97.3359ZM105.65 35.431H114.658C116.631 35.431 118.227 34.889 119.445 33.8049C120.662 32.7208 121.271 31.2406 121.271 29.3643V28.7389C121.271 26.8626 120.662 25.3824 119.445 24.2983C118.227 23.2142 116.631 22.6722 114.658 22.6722H105.65V35.431Z" fill="#0D1126"/>
<defs>
<linearGradient id="paint0_linear_4237_34631" x1="45.9413" y1="-31.2173" x2="-26.9603" y2="40.9135" gradientUnits="userSpaceOnUse">
<stop stop-color="#A192EC"/>
<stop offset="1" stop-color="#5547EB"/>
</linearGradient>
<linearGradient id="paint1_linear_4237_34631" x1="45.9413" y1="-31.2173" x2="-26.9603" y2="40.9135" gradientUnits="userSpaceOnUse">
<stop stop-color="#A192EC"/>
<stop offset="1" stop-color="#5547EB"/>
</linearGradient>
</defs>
</svg>
