<svg width="224" height="80" viewBox="0 0 224 80" fill="none" xmlns="http://www.w3.org/2000/svg">
<path d="M38.4422 8.1667C38.4422 6.81366 37.3437 5.7168 35.9885 5.7168H24.5381C23.1829 5.7168 22.0844 6.81366 22.0844 8.1667V19.3023C22.0844 19.952 21.8259 20.5752 21.3657 21.0346L21.0679 21.3319C20.6078 21.7914 19.9837 22.0495 19.3329 22.0495H8.18024C6.82511 22.0495 5.72656 23.1464 5.72656 24.4994L5.72656 55.5315C5.72656 56.8846 6.82511 57.9815 8.18024 57.9815H19.3329C19.9837 57.9815 20.6078 58.2396 21.0679 58.699L21.3657 58.9964C21.8259 59.4558 22.0844 60.0789 22.0844 60.7287L22.0844 71.8643C22.0844 73.2173 23.1829 74.3142 24.5381 74.3142H55.6179C56.9731 74.3142 58.0716 73.2173 58.0716 71.8643V60.7285C58.0716 60.0787 58.3301 59.4556 58.7903 58.9961L59.0878 58.699C59.548 58.2396 60.1721 57.9815 60.8229 57.9815H71.9758C73.3309 57.9815 74.4294 56.8846 74.4294 55.5315V44.0987C74.4294 42.7456 73.3309 41.6488 71.9758 41.6488H60.5253C59.1702 41.6488 58.0716 42.7456 58.0716 44.0987V55.2342C58.0716 55.884 57.8131 56.5071 57.3529 56.9666L57.0552 57.2639C56.595 57.7233 55.9709 57.9815 55.3201 57.9815H24.8356C24.1849 57.9815 23.5608 57.7233 23.1006 57.2639L22.8031 56.9668C22.3429 56.5073 22.0844 55.8842 22.0844 55.2344L22.0844 24.7965C22.0844 24.1468 22.3429 23.5236 22.8031 23.0642L23.1006 22.7671C23.5608 22.3076 24.1849 22.0495 24.8356 22.0495H35.9885C37.3437 22.0495 38.4422 20.9526 38.4422 19.5996V8.1667Z" fill="url(#paint0_linear_4237_34694)"/>
<path d="M71.9767 5.7168C73.3318 5.7168 74.4304 6.81366 74.4304 8.1667V29.3992C74.4304 30.7523 73.3318 31.8491 71.9767 31.8491H51.0092C50.3584 31.8491 49.7343 32.1072 49.2742 32.5667L48.9765 32.8639C48.5164 33.3234 48.2578 33.9465 48.2578 34.5963V45.7319C48.2578 47.085 47.1593 48.1818 45.8042 48.1818H34.3537C32.9986 48.1818 31.9 47.085 31.9 45.7319V34.299C31.9 32.946 32.9986 31.8491 34.3537 31.8491H45.5065C46.1572 31.8491 46.7813 31.591 47.2415 31.1316L47.5392 30.8343C47.9993 30.3749 48.2578 29.7518 48.2578 29.102V8.1667C48.2578 6.81366 49.3564 5.7168 50.7115 5.7168H71.9767Z" fill="url(#paint1_linear_4237_34694)"/>
<path d="M185.398 43.5622V42.5615C185.398 39.3093 186.049 36.5365 187.351 34.2433C188.653 31.9083 190.374 30.1363 192.516 28.9271C194.7 27.6762 197.072 27.0508 199.634 27.0508C202.489 27.0508 204.652 27.5511 206.121 28.5518C207.438 29.4481 208.434 30.3777 209.11 31.3409C209.255 31.5472 209.487 31.679 209.739 31.679C210.141 31.679 210.468 31.3529 210.468 30.9507V27.9264H218.278V64.4517C218.278 66.5782 217.648 68.2668 216.388 69.5177C215.129 70.8103 213.449 71.4565 211.349 71.4565H192.037V64.5768H208.578C209.754 64.5768 210.342 63.9513 210.342 62.7005V55.3628C210.342 54.9594 210.015 54.6324 209.611 54.6324C209.36 54.6324 209.129 54.7626 208.984 54.9677C208.587 55.5294 208.074 56.1056 207.444 56.6963C206.688 57.3634 205.68 57.9263 204.421 58.385C203.161 58.8436 201.565 59.073 199.634 59.073C197.072 59.073 194.7 58.4684 192.516 57.2592C190.374 56.0083 188.653 54.2363 187.351 51.943C186.049 49.6081 185.398 46.8145 185.398 43.5622ZM201.901 52.1932C204.337 52.1932 206.373 51.4218 208.011 49.8791C209.649 48.3364 210.468 46.1682 210.468 43.3746V42.7492C210.468 39.9139 209.649 37.7457 208.011 36.2447C206.415 34.7019 204.379 33.9305 201.901 33.9305C199.466 33.9305 197.429 34.7019 195.791 36.2447C194.154 37.7457 193.335 39.9139 193.335 42.7492V43.3746C193.335 46.1682 194.154 48.3364 195.791 49.8791C197.429 51.4218 199.466 52.1932 201.901 52.1932Z" fill="white"/>
<path d="M149.527 58.9486V27.9271H157.338V31.3002C157.338 31.6825 157.648 31.9924 158.03 31.9924C158.299 31.9924 158.541 31.8343 158.675 31.6004C159.211 30.6613 160.089 29.7704 161.306 28.9278C162.692 27.9271 164.791 27.4268 167.605 27.4268C170.04 27.4268 172.161 27.9896 173.967 29.1154C175.814 30.1995 177.242 31.7214 178.25 33.6811C179.258 35.5991 179.761 37.8506 179.761 40.4358V58.9486H171.825V41.0612C171.825 38.7262 171.237 36.975 170.061 35.8076C168.928 34.6401 167.29 34.0563 165.148 34.0563C162.713 34.0563 160.823 34.8694 159.479 36.4955C158.136 38.08 157.464 40.3107 157.464 43.1877V58.9486H149.527Z" fill="white"/>
<path fill-rule="evenodd" clip-rule="evenodd" d="M135.321 15.2021C134.658 15.2021 134.121 15.7394 134.121 16.4021V22.0021C134.121 22.6649 134.658 23.2021 135.321 23.2021H140.921C141.584 23.2021 142.121 22.6649 142.121 22.0021V16.4021C142.121 15.7394 141.584 15.2021 140.921 15.2021H135.321ZM134.227 27.9277V58.9492H142.163V27.9277H134.227Z" fill="white"/>
<path d="M97.332 58.9482V15.168H115.473C118.244 15.168 120.68 15.7309 122.779 16.8566C124.921 17.9407 126.579 19.4835 127.755 21.4848C128.973 23.4862 129.582 25.8629 129.582 28.6148V29.4904C129.582 32.2006 128.952 34.5772 127.692 36.6203C126.474 38.6217 124.795 40.1853 122.653 41.311C120.554 42.3951 118.16 42.9372 115.473 42.9372H105.646V58.9482H97.332ZM105.646 35.432H114.654C116.627 35.432 118.223 34.8899 119.441 33.8059C120.659 32.7218 121.267 31.2416 121.267 29.3653V28.7399C121.267 26.8636 120.659 25.3834 119.441 24.2993C118.223 23.2152 116.627 22.6732 114.654 22.6732H105.646V35.432Z" fill="white"/>
<defs>
<linearGradient id="paint0_linear_4237_34694" x1="45.9296" y1="-31.2202" x2="-26.972" y2="40.9106" gradientUnits="userSpaceOnUse">
<stop stop-color="#A192EC"/>
<stop offset="1" stop-color="#5547EB"/>
</linearGradient>
<linearGradient id="paint1_linear_4237_34694" x1="45.9296" y1="-31.2202" x2="-26.972" y2="40.9106" gradientUnits="userSpaceOnUse">
<stop stop-color="#A192EC"/>
<stop offset="1" stop-color="#5547EB"/>
</linearGradient>
</defs>
</svg>
